# xmcd
#
# Track frame offsets: 
#        150
#        10285
#        20480
#        30241
#        40009
#        50377
#        61780
#        69603
#        79593
#        90234
#        97827
#        111065
#
# Disc length: 1586 seconds
#
# Revision: 0
# Processed by: cddbd v1.5.2PL0 Copyright (c) Steve Scherf et al.
# Submitted via: ExactAudioCopy v1.1
#
DISCID=7c06300c
DTITLE=Homer and Jethro - Playing It Straight (1962)
DYEAR=2016
DGENRE=Instrumental
TTITLE0=If Dreams Come True
TTITLE1=I Want To Be Happy
TTITLE2=Melody From Raymond
TTITLE3=Don't Be That Way
TTITLE4=It's All Right With Me
TTITLE5=Autumn Leaves
TTITLE6=I'm Looking Over A Four Leaf Clover
TTITLE7=Around The World
TTITLE8=Momer And Jethro Boogie
TTITLE9=Tico Tico
TTITLE10=Nanner Pudding
TTITLE11=I've Found A New Baby
EXTD=
EXTT0=
EXTT1=
EXTT2=
EXTT3=
EXTT4=
EXTT5=
EXTT6=
EXTT7=
EXTT8=
EXTT9=
EXTT10=
EXTT11=
PLAYORDER=
